<svg width="199" height="181" viewBox="0 0 199 181" fill="none" xmlns="http://www.w3.org/2000/svg">
<path d="M151.457 111.802L101.73 87.1173L99.7497 88.3443L98.2425 86.8855L48.0423 111.802L46.0618 115L47.2694 117.811L95.2958 141.646H99.7497H104.204L152.22 117.811L153.438 115L151.457 111.802Z" fill="#95001A"></path>
<path d="M46.0613 115L99.7493 141.646V143.858L64.9589 161.133H60.4953L46.0613 153.868L44.0807 150.911V118.188L46.0613 115Z" fill="#40004D"></path>
<path d="M153.438 115L99.769 141.646V143.858L134.559 161.133H139.023L153.457 153.868L155.437 150.911V118.188L153.438 115Z" fill="#520033"></path>
<path d="M153.457 62.0079L151.477 63.2445V111.802L153.438 115L155.438 118.188L187.89 134.294H192.344L198.74 131.077L153.457 62.0079Z" fill="#FFA80A"></path>
<path d="M46.062 62.0079L48.0426 63.2445V111.802L46.062 115L44.0814 118.188L11.629 134.294H7.17518L0.779388 131.077L46.062 62.0079Z" fill="#FF3417"></path>
<path d="M46.0623 153.868L7.17548 134.294L46.0623 115V153.868Z" fill="#6D0044"></path>
<path d="M99.7495 180.881L138.994 161.133L99.7495 141.646L60.4956 161.133L99.7495 180.881Z" fill="#6D0074"></path>
<path d="M153.457 153.868L192.344 134.294L153.438 115L153.457 153.868Z" fill="#6D0044"></path>
<path d="M99.7594 0.880432H86.1466L46.0618 62.0076L48.0423 63.2442L99.7497 37.5741V35.3617L101.73 33.9801L101.74 2.60981L99.7594 0.880432Z" fill="#FFA80A"></path>
<path d="M99.7497 35.3619L46.0618 62.0079V115L99.7497 88.3446L101.73 87.1176V38.5502L99.7497 35.3619Z" fill="#D7001F"></path>
<path d="M99.7592 0.880432H113.372L153.457 62.0076L151.476 63.2442L101.73 38.5499L99.7495 35.3617L99.7592 0.880432Z" fill="#FFE50A"></path>
<path d="M153.437 115L99.7495 88.3446V35.3619L153.437 62.0079V115Z" fill="#EF8109"></path>
</svg>