<svg width="24" height="24" viewBox="0 0 24 24" fill="none" xmlns="http://www.w3.org/2000/svg"><circle cx="12" cy="12" r="12" fill="#F25D00"/><g transform="translate(12 12) scale(0.72) translate(-12 -12)"><path fill="#fff" fill-rule="evenodd" d="M21 12a9 9 0 1 1-18 0 9 9 0 0 1 18 0M8.79 6.096h2.744a.17.17 0 0 1 .17.17v2.745a.17.17 0 0 1-.17.171H8.789a.17.17 0 0 1-.17-.17V6.266a.17.17 0 0 1 .17-.171m3.685 4.027v2.744a.17.17 0 0 0 .17.171h2.745a.17.17 0 0 0 .17-.17v-2.745a.17.17 0 0 0-.17-.17h-2.744a.17.17 0 0 0-.171.17m-3.857.001v2.744a.17.17 0 0 0 .171.171h2.745a.17.17 0 0 0 .17-.17v-2.745a.17.17 0 0 0-.17-.17H8.789a.17.17 0 0 0-.17.17m0 3.856v2.744a.17.17 0 0 0 .171.171h2.745a.17.17 0 0 0 .17-.17V13.98a.17.17 0 0 0-.17-.17H8.789a.17.17 0 0 0-.17.17m3.857 2.745V13.98a.17.17 0 0 1 .17-.17h2.745a.17.17 0 0 1 .17.17v2.745a.17.17 0 0 1-.17.17h-2.744a.17.17 0 0 1-.171-.17" clip-rule="evenodd"/></g></svg>
