<svg width="24" height="24" viewBox="0 0 24 24" fill="none" xmlns="http://www.w3.org/2000/svg">
<circle cx="12" cy="12" r="12" fill="#16A510"/>
<!-- wishbone: two arms sweeping down from top corners meeting in a center stem -->
<path d="M5 6.2c1.6 0.2 2.9 1.0 3.9 2.2 0.9 1.1 1.5 2.2 1.5 3.6V15h3.2v-3c0-1.4 0.6-2.5 1.5-3.6 1.0-1.2 2.3-2.0 3.9-2.2-0.5 1.9-1.6 3.3-2.9 4.6-1.0 1.0-1.7 1.8-1.7 3.0V16h-3.6v-1.6c0-1.2-0.7-2.0-1.7-3.0C7.6 9.5 6.5 8.1 6 6.2z" fill="#fff"/>
<rect x="7.2" y="17.2" width="9.6" height="1.9" rx="0.3" fill="#fff"/>
</svg>
