<svg width="24" height="24" viewBox="0 0 24 24" fill="none" xmlns="http://www.w3.org/2000/svg">
<defs>
<linearGradient id="moralisG" x1="4" y1="6" x2="20" y2="18" gradientUnits="userSpaceOnUse">
<stop offset="0" stop-color="#7B3FE4"/>
<stop offset="0.5" stop-color="#5A6CF0"/>
<stop offset="1" stop-color="#22D3EE"/>
</linearGradient>
</defs>
<circle cx="12" cy="12" r="12" fill="#F4F5F7"/>
<!-- Twin-hump "M": two rounded peaks meeting in a center dip, open at the bottom -->
<path d="M5.2 16.8V11.2c0-2.4 1.7-4.0 3.8-4.0 1.6 0 2.6 0.9 3.0 2.1 0.4-1.2 1.4-2.1 3.0-2.1 2.1 0 3.8 1.6 3.8 4.0v5.6h-2.6v-5.4c0-1.0-0.6-1.6-1.5-1.6s-1.5 0.6-1.5 1.7v0.9h-2.4v-0.9c0-1.1-0.6-1.7-1.5-1.7s-1.5 0.6-1.5 1.6v5.4z" fill="url(#moralisG)"/>
</svg>
